<svg width="129" height="54" viewBox="0 0 129 54" fill="none" xmlns="http://www.w3.org/2000/svg">
<path d="M41.1527 0.732432L38.3669 9.51436L18.5645 9.68656C14.4195 9.72346 10.4283 14.2928 10.8096 18.3886C10.9455 19.5732 11.3208 20.7177 11.9129 21.7527C12.5049 22.7878 13.3012 23.6915 14.2534 24.4092C16.2029 25.9467 18.5583 26.1004 20.9383 26.1127C30.1097 26.1373 39.277 26.1701 48.4403 26.2111C49.8916 26.2111 51.3983 26.1127 52.8497 26.2111C54.4076 29.2614 55.9676 32.3117 57.5297 35.362L34.2403 35.0976L22.5926 34.9623C19.0749 34.9192 15.5388 34.9623 12.1379 33.8738C11.5844 33.6954 11.0433 33.4986 10.5144 33.2588C6.38632 31.4261 3.1179 28.0807 1.3819 23.9111C-0.290854 19.8583 -0.622943 14.4465 1.3819 10.4122C2.43075 8.31709 3.86633 6.43916 5.61297 4.87742C10.2868 0.664797 16.5781 0.6033 22.525 0.535652C28.2648 0.461855 34.0046 0.4926 39.7444 0.627896L41.1527 0.732432Z" fill="#FB6060" style="fill:#FB6060;fill:color(display-p3 0.9833 0.3783 0.3783);fill-opacity:1;"/>
<path d="M88.844 1.71645C88.844 1.71645 82.2883 -1.8197 78.8444 1.36591C76.9995 3.10015 65.813 24.3662 65.813 24.3662L53.9069 2.55897C53.9069 2.55897 52.1296 -0.153093 49.3253 0.0068022C46.521 0.166697 45.2419 0.00681327 43.4892 3.41996C41.7365 6.8331 37.8129 21.937 37.8129 21.937H47.6526L50.0018 13.1551C50.0018 13.1551 60.7824 32.5393 61.4097 33.5602C62.5536 35.4051 67.6272 36.9733 70.3208 32.8222C73.6171 27.7548 88.844 1.71645 88.844 1.71645Z" fill="black" style="fill:black;fill-opacity:1;"/>
<path d="M128.419 1.65494L118.456 1.53809L111.285 24.3539C108.487 18.9974 100.831 4.6745 100.142 3.44454C98.6843 1.03381 93.3462 -0.780386 90.954 3.29079C88.2911 7.8355 88.3034 7.78631 73.5992 34.7163C77.5843 36.6904 82.498 35.768 84.7672 32.0166C86.6122 28.9417 95.6155 13.7639 95.5602 13.7086C96.1751 14.7725 97.4051 16.6666 98.0816 17.915L102.097 25.098C103.899 28.3144 105.787 32.2872 107.804 35.3805C109.957 38.7014 116.027 39.4886 117.847 34.0214C118.77 31.2601 128.425 1.70414 128.419 1.64264V1.65494Z" fill="#FB6060" style="fill:#FB6060;fill:color(display-p3 0.9833 0.3783 0.3783);fill-opacity:1;"/>
<path d="M91.6674 24.5261L85.5483 35.688H94.933L91.6674 24.5261Z" fill="black" style="fill:black;fill-opacity:1;"/>
<path d="M69.7621 11.2179L75.8812 0.0560303H66.4904L69.7621 11.2179Z" fill="#FB6060" style="fill:#FB6060;fill:color(display-p3 0.9833 0.3783 0.3783);fill-opacity:1;"/>
<path d="M24.5753 44.1293H23.0241C22.9645 43.7978 22.8535 43.5062 22.6911 43.2543C22.5286 43.0024 22.3298 42.7886 22.0945 42.6129C21.8591 42.4373 21.5956 42.3047 21.304 42.2152C21.0156 42.1257 20.709 42.081 20.3842 42.081C19.7976 42.081 19.2723 42.2285 18.8082 42.5234C18.3475 42.8184 17.983 43.2509 17.7145 43.821C17.4493 44.3911 17.3168 45.0871 17.3168 45.9091C17.3168 46.7377 17.4493 47.437 17.7145 48.0071C17.983 48.5772 18.3492 49.008 18.8132 49.2997C19.2772 49.5914 19.7992 49.7372 20.3793 49.7372C20.7008 49.7372 21.0057 49.6941 21.294 49.608C21.5857 49.5185 21.8492 49.3875 22.0845 49.2152C22.3198 49.0429 22.5187 48.8324 22.6811 48.5838C22.8468 48.3319 22.9612 48.0436 23.0241 47.7188L24.5753 47.7237C24.4924 48.2242 24.3317 48.6849 24.093 49.1058C23.8577 49.5234 23.5545 49.8847 23.1832 50.1896C22.8153 50.4912 22.3944 50.7249 21.9205 50.8906C21.4465 51.0563 20.9295 51.1392 20.3693 51.1392C19.4877 51.1392 18.7022 50.9304 18.0128 50.5128C17.3234 50.0919 16.7798 49.4903 16.3821 48.7081C15.9877 47.9259 15.7905 46.9929 15.7905 45.9091C15.7905 44.822 15.9893 43.889 16.3871 43.1101C16.7848 42.3279 17.3284 41.728 18.0178 41.3104C18.7071 40.8894 19.491 40.679 20.3693 40.679C20.9096 40.679 21.4134 40.7569 21.8807 40.9126C22.3513 41.0651 22.7739 41.2905 23.1484 41.5888C23.523 41.8838 23.8329 42.245 24.0781 42.6726C24.3234 43.0968 24.4891 43.5824 24.5753 44.1293ZM29.5108 51.1541C28.7949 51.1541 28.1702 50.9901 27.6365 50.6619C27.1029 50.3338 26.6886 49.8748 26.3936 49.2848C26.0987 48.6948 25.9512 48.0054 25.9512 47.2166C25.9512 46.4245 26.0987 45.7318 26.3936 45.1385C26.6886 44.5452 27.1029 44.0845 27.6365 43.7564C28.1702 43.4283 28.7949 43.2642 29.5108 43.2642C30.2267 43.2642 30.8515 43.4283 31.3851 43.7564C31.9187 44.0845 32.333 44.5452 32.628 45.1385C32.923 45.7318 33.0705 46.4245 33.0705 47.2166C33.0705 48.0054 32.923 48.6948 32.628 49.2848C32.333 49.8748 31.9187 50.3338 31.3851 50.6619C30.8515 50.9901 30.2267 51.1541 29.5108 51.1541ZM29.5158 49.9062C29.9798 49.9062 30.3643 49.7836 30.6692 49.5384C30.9741 49.2931 31.1995 48.9666 31.3453 48.5589C31.4945 48.1513 31.5691 47.7022 31.5691 47.2116C31.5691 46.7244 31.4945 46.277 31.3453 45.8693C31.1995 45.4583 30.9741 45.1286 30.6692 44.88C30.3643 44.6314 29.9798 44.5071 29.5158 44.5071C29.0485 44.5071 28.6607 44.6314 28.3525 44.88C28.0475 45.1286 27.8205 45.4583 27.6713 45.8693C27.5255 46.277 27.4526 46.7244 27.4526 47.2116C27.4526 47.7022 27.5255 48.1513 27.6713 48.5589C27.8205 48.9666 28.0475 49.2931 28.3525 49.5384C28.6607 49.7836 29.0485 49.9062 29.5158 49.9062ZM39.5671 47.8331V43.3636H41.0586V51H39.5969V49.6776H39.5174C39.3417 50.0852 39.06 50.425 38.6722 50.6967C38.2878 50.9652 37.8088 51.0994 37.2354 51.0994C36.7449 51.0994 36.3107 50.9917 35.9329 50.7763C35.5584 50.5575 35.2634 50.2344 35.0479 49.8068C34.8358 49.3793 34.7298 48.8506 34.7298 48.2209V43.3636H36.2163V48.0419C36.2163 48.5623 36.3604 48.9766 36.6488 49.2848C36.9371 49.593 37.3117 49.7472 37.7724 49.7472C38.0508 49.7472 38.3275 49.6776 38.6026 49.5384C38.881 49.3991 39.1114 49.1887 39.2937 48.907C39.4793 48.6252 39.5704 48.2673 39.5671 47.8331ZM44.5424 46.4659V51H43.0559V43.3636H44.4828V44.6065H44.5772C44.7529 44.2022 45.028 43.8774 45.4025 43.6321C45.7804 43.3868 46.256 43.2642 46.8294 43.2642C47.3497 43.2642 47.8055 43.3736 48.1966 43.5923C48.5877 43.8078 48.8909 44.1293 49.1064 44.5568C49.3218 44.9844 49.4295 45.513 49.4295 46.1428V51H47.943V46.3217C47.943 45.7682 47.7988 45.3357 47.5105 45.0241C47.2221 44.7093 46.8261 44.5518 46.3223 44.5518C45.9776 44.5518 45.671 44.6264 45.4025 44.7756C45.1374 44.9247 44.9269 45.1435 44.7711 45.4318C44.6187 45.7169 44.5424 46.0616 44.5424 46.4659ZM54.9877 43.3636V44.5568H50.8166V43.3636H54.9877ZM51.9352 41.5341H53.4217V48.7578C53.4217 49.0462 53.4648 49.2633 53.551 49.4091C53.6371 49.5516 53.7482 49.6494 53.8841 49.7024C54.0233 49.7521 54.1741 49.777 54.3365 49.777C54.4558 49.777 54.5602 49.7687 54.6497 49.7521C54.7392 49.7356 54.8088 49.7223 54.8585 49.7124L55.127 50.9403C55.0408 50.9735 54.9181 51.0066 54.7591 51.0398C54.6 51.0762 54.4011 51.0961 54.1625 51.0994C53.7714 51.1061 53.4068 51.0365 53.0687 50.8906C52.7306 50.7448 52.4572 50.5194 52.2484 50.2145C52.0396 49.9096 51.9352 49.5268 51.9352 49.0661V41.5341ZM60.4565 40.8182H62.3208L65.5623 48.733H65.6816L68.9231 40.8182H70.7875V51H69.3258V43.6321H69.2314L66.2285 50.9851H65.0154L62.0126 43.6271H61.9181V51H60.4565V40.8182ZM73.8413 53.8636C73.6192 53.8636 73.417 53.8454 73.2347 53.8089C73.0524 53.7758 72.9165 53.7393 72.8271 53.6996L73.185 52.4815C73.4568 52.5545 73.6987 52.5859 73.9109 52.576C74.123 52.5661 74.3103 52.4865 74.4727 52.3374C74.6384 52.1882 74.7842 51.9446 74.9102 51.6065L75.0941 51.0994L72.3001 43.3636H73.891L75.8249 49.2898H75.9045L77.8384 43.3636H79.4343L76.2873 52.0192C76.1415 52.4169 75.9558 52.7533 75.7305 53.0284C75.5051 53.3068 75.2366 53.5156 74.9251 53.6548C74.6135 53.794 74.2522 53.8636 73.8413 53.8636ZM86.6493 51L83.8255 40.8182H85.4412L87.4249 48.7031H87.5194L89.5826 40.8182H91.1834L93.2466 48.7081H93.3411L95.3198 40.8182H96.9405L94.1117 51H92.5655L90.4228 43.3736H90.3432L88.2005 51H86.6493ZM100.687 51.1541C99.9707 51.1541 99.3459 50.9901 98.8123 50.6619C98.2787 50.3338 97.8644 49.8748 97.5694 49.2848C97.2744 48.6948 97.127 48.0054 97.127 47.2166C97.127 46.4245 97.2744 45.7318 97.5694 45.1385C97.8644 44.5452 98.2787 44.0845 98.8123 43.7564C99.3459 43.4283 99.9707 43.2642 100.687 43.2642C101.403 43.2642 102.027 43.4283 102.561 43.7564C103.095 44.0845 103.509 44.5452 103.804 45.1385C104.099 45.7318 104.246 46.4245 104.246 47.2166C104.246 48.0054 104.099 48.6948 103.804 49.2848C103.509 49.8748 103.095 50.3338 102.561 50.6619C102.027 50.9901 101.403 51.1541 100.687 51.1541ZM100.692 49.9062C101.156 49.9062 101.54 49.7836 101.845 49.5384C102.15 49.2931 102.375 48.9666 102.521 48.5589C102.67 48.1513 102.745 47.7022 102.745 47.2116C102.745 46.7244 102.67 46.277 102.521 45.8693C102.375 45.4583 102.15 45.1286 101.845 44.88C101.54 44.6314 101.156 44.5071 100.692 44.5071C100.224 44.5071 99.8365 44.6314 99.5282 44.88C99.2233 45.1286 98.9963 45.4583 98.8471 45.8693C98.7013 46.277 98.6284 46.7244 98.6284 47.2116C98.6284 47.7022 98.7013 48.1513 98.8471 48.5589C98.9963 48.9666 99.2233 49.2931 99.5282 49.5384C99.8365 49.7836 100.224 49.9062 100.692 49.9062ZM105.906 51V43.3636H107.342V44.5767H107.422C107.561 44.1657 107.806 43.8426 108.158 43.6072C108.512 43.3686 108.913 43.2493 109.361 43.2493C109.454 43.2493 109.563 43.2526 109.689 43.2592C109.818 43.2659 109.919 43.2741 109.992 43.2841V44.706C109.933 44.6894 109.826 44.6712 109.674 44.6513C109.522 44.6281 109.369 44.6165 109.217 44.6165C108.865 44.6165 108.552 44.6911 108.277 44.8402C108.005 44.986 107.79 45.1899 107.631 45.4517C107.472 45.7102 107.392 46.0052 107.392 46.3366V51H105.906ZM113.864 51.1491C113.247 51.1491 112.697 50.9917 112.213 50.6768C111.733 50.3587 111.355 49.9062 111.08 49.3196C110.808 48.7296 110.672 48.022 110.672 47.1967C110.672 46.3714 110.81 45.6655 111.085 45.0788C111.363 44.4922 111.744 44.0431 112.228 43.7315C112.712 43.42 113.261 43.2642 113.874 43.2642C114.348 43.2642 114.729 43.3438 115.017 43.5028C115.309 43.6586 115.534 43.8409 115.693 44.0497C115.856 44.2585 115.982 44.4425 116.071 44.6016H116.161V40.8182H117.647V51H116.195V49.8118H116.071C115.982 49.9742 115.852 50.1598 115.683 50.3686C115.518 50.5774 115.289 50.7597 114.997 50.9155C114.706 51.0713 114.328 51.1491 113.864 51.1491ZM114.192 49.8814C114.619 49.8814 114.981 49.7687 115.276 49.5433C115.574 49.3146 115.799 48.9981 115.952 48.5938C116.108 48.1894 116.186 47.7187 116.186 47.1818C116.186 46.6515 116.109 46.1875 115.957 45.7898C115.804 45.392 115.581 45.0821 115.286 44.8601C114.991 44.638 114.626 44.527 114.192 44.527C113.744 44.527 113.372 44.643 113.073 44.875C112.775 45.107 112.55 45.4235 112.397 45.8246C112.248 46.2256 112.173 46.678 112.173 47.1818C112.173 47.6922 112.25 48.1513 112.402 48.5589C112.555 48.9666 112.78 49.2898 113.078 49.5284C113.38 49.7637 113.751 49.8814 114.192 49.8814Z" fill="black" style="fill:black;fill-opacity:1;"/>
</svg>
