<svg width="129" height="54" viewBox="0 0 129 54" fill="none" xmlns="http://www.w3.org/2000/svg">
<path d="M41.1527 0.732447L38.3669 9.51438L18.5645 9.68657C14.4195 9.72347 10.4283 14.2928 10.8096 18.3886C10.9455 19.5732 11.3208 20.7178 11.9129 21.7528C12.5049 22.7878 13.3012 23.6916 14.2534 24.4092C16.2029 25.9467 18.5583 26.1004 20.9383 26.1127C30.1097 26.1373 39.277 26.1701 48.4403 26.2111C49.8916 26.2111 51.3983 26.1127 52.8497 26.2111C54.4076 29.2614 55.9676 32.3117 57.5297 35.362L34.2403 35.0976L22.5926 34.9623C19.0749 34.9193 15.5388 34.9623 12.1379 33.8738C11.5844 33.6954 11.0433 33.4987 10.5144 33.2588C6.38632 31.4262 3.1179 28.0807 1.3819 23.9111C-0.290854 19.8584 -0.622943 14.4465 1.3819 10.4123C2.43075 8.3171 3.86633 6.43917 5.61297 4.87743C10.2868 0.664812 16.5781 0.603316 22.525 0.535668C28.2648 0.46187 34.0046 0.492615 39.7444 0.627911L41.1527 0.732447Z" fill="white" style="fill:white;fill-opacity:1;"/>
<path d="M88.844 1.71645C88.844 1.71645 82.2883 -1.8197 78.8444 1.36591C76.9995 3.10015 65.813 24.3662 65.813 24.3662L53.9069 2.55897C53.9069 2.55897 52.1296 -0.153093 49.3253 0.0068022C46.521 0.166697 45.2419 0.00681327 43.4892 3.41996C41.7365 6.8331 37.8129 21.937 37.8129 21.937H47.6526L50.0018 13.1551C50.0018 13.1551 60.7824 32.5393 61.4097 33.5602C62.5536 35.4051 67.6272 36.9733 70.3208 32.8222C73.6171 27.7548 88.844 1.71645 88.844 1.71645Z" fill="black" style="fill:black;fill-opacity:1;"/>
<path d="M128.419 1.65494L118.456 1.5381L111.285 24.3539C108.487 18.9974 100.831 4.6745 100.142 3.44454C98.6843 1.03382 93.3462 -0.780378 90.954 3.2908C88.2911 7.83551 88.3034 7.78631 73.5992 34.7163C77.5843 36.6904 82.498 35.768 84.7672 32.0166C86.6122 28.9417 95.6155 13.7639 95.5602 13.7086C96.1751 14.7725 97.4051 16.6666 98.0816 17.9151L102.097 25.098C103.899 28.3144 105.787 32.2872 107.804 35.3805C109.957 38.7014 116.027 39.4886 117.847 34.0214C118.77 31.2601 128.425 1.70415 128.419 1.64265V1.65494Z" fill="white" style="fill:white;fill-opacity:1;"/>
<path d="M91.6674 24.5261L85.5483 35.688H94.933L91.6674 24.5261Z" fill="black" style="fill:black;fill-opacity:1;"/>
<path d="M69.7621 11.2179L75.8812 0.0559998H66.4904L69.7621 11.2179Z" fill="white" style="fill:white;fill-opacity:1;"/>
<path d="M24.7195 44.2536H22.8601C22.8071 43.9486 22.7093 43.6785 22.5668 43.4432C22.4242 43.2045 22.2469 43.0024 22.0348 42.8366C21.8227 42.6709 21.5807 42.5466 21.3089 42.4638C21.0405 42.3776 20.7505 42.3345 20.4389 42.3345C19.8854 42.3345 19.3949 42.4737 18.9673 42.7521C18.5398 43.0272 18.205 43.4316 17.9631 43.9652C17.7211 44.4955 17.6001 45.1435 17.6001 45.9091C17.6001 46.688 17.7211 47.3442 17.9631 47.8778C18.2083 48.4081 18.5431 48.8092 18.9673 49.081C19.3949 49.3494 19.8838 49.4837 20.4339 49.4837C20.7389 49.4837 21.0239 49.4439 21.2891 49.3643C21.5575 49.2815 21.7978 49.1605 22.0099 49.0014C22.2254 48.8423 22.406 48.6468 22.5518 48.4148C22.701 48.1828 22.8037 47.9176 22.8601 47.6193L24.7195 47.6293C24.6499 48.1132 24.4991 48.5672 24.267 48.9915C24.0384 49.4157 23.7384 49.7902 23.3672 50.1151C22.996 50.4366 22.5618 50.6884 22.0646 50.8707C21.5675 51.0497 21.0156 51.1392 20.4091 51.1392C19.5142 51.1392 18.7154 50.9321 18.0128 50.5178C17.3101 50.1035 16.7566 49.5052 16.3523 48.723C15.9479 47.9408 15.7457 47.0028 15.7457 45.9091C15.7457 44.812 15.9496 43.8741 16.3572 43.0952C16.7649 42.313 17.3201 41.7147 18.0227 41.3004C18.7254 40.8861 19.5208 40.679 20.4091 40.679C20.9759 40.679 21.5028 40.7585 21.9901 40.9176C22.4773 41.0767 22.9115 41.3104 23.2926 41.6186C23.6738 41.9235 23.987 42.2981 24.2322 42.7422C24.4808 43.183 24.6432 43.6868 24.7195 44.2536ZM29.66 51.1491C28.9142 51.1491 28.2679 50.9851 27.7211 50.657C27.1742 50.3288 26.7499 49.8698 26.4483 49.2798C26.15 48.6899 26.0009 48.0005 26.0009 47.2116C26.0009 46.4228 26.15 45.7318 26.4483 45.1385C26.7499 44.5452 27.1742 44.0845 27.7211 43.7564C28.2679 43.4283 28.9142 43.2642 29.66 43.2642C30.4057 43.2642 31.052 43.4283 31.5989 43.7564C32.1458 44.0845 32.5684 44.5452 32.8667 45.1385C33.1683 45.7318 33.3191 46.4228 33.3191 47.2116C33.3191 48.0005 33.1683 48.6899 32.8667 49.2798C32.5684 49.8698 32.1458 50.3288 31.5989 50.657C31.052 50.9851 30.4057 51.1491 29.66 51.1491ZM29.6699 49.7074C30.0743 49.7074 30.4123 49.5964 30.6841 49.3743C30.9559 49.1489 31.1581 48.8473 31.2907 48.4695C31.4266 48.0916 31.4945 47.6707 31.4945 47.2067C31.4945 46.7393 31.4266 46.3168 31.2907 45.9389C31.1581 45.5578 30.9559 45.2545 30.6841 45.0291C30.4123 44.8037 30.0743 44.6911 29.6699 44.6911C29.2556 44.6911 28.9109 44.8037 28.6358 45.0291C28.3641 45.2545 28.1602 45.5578 28.0243 45.9389C27.8917 46.3168 27.8255 46.7393 27.8255 47.2067C27.8255 47.6707 27.8917 48.0916 28.0243 48.4695C28.1602 48.8473 28.3641 49.1489 28.6358 49.3743C28.9109 49.5964 29.2556 49.7074 29.6699 49.7074ZM39.7138 47.7884V43.3636H41.5135V51H39.7685V49.6428H39.6889C39.5166 50.0703 39.2332 50.42 38.8388 50.6918C38.4477 50.9635 37.9654 51.0994 37.392 51.0994C36.8916 51.0994 36.4491 50.9884 36.0646 50.7663C35.6835 50.541 35.3852 50.2145 35.1697 49.7869C34.9543 49.3561 34.8466 48.8357 34.8466 48.2259V43.3636H36.6463V47.9474C36.6463 48.4313 36.7789 48.8158 37.044 49.1009C37.3092 49.3859 37.6572 49.5284 38.0881 49.5284C38.3532 49.5284 38.6101 49.4638 38.8587 49.3345C39.1072 49.2053 39.3111 49.013 39.4702 48.7578C39.6326 48.4993 39.7138 48.1761 39.7138 47.7884ZM45.1639 46.5256V51H43.3642V43.3636H45.0843V44.6612H45.1738C45.3495 44.2337 45.6296 43.8939 46.014 43.642C46.4018 43.3902 46.8807 43.2642 47.4508 43.2642C47.9778 43.2642 48.4368 43.3769 48.8279 43.6023C49.2224 43.8277 49.5273 44.1541 49.7427 44.5817C49.9615 45.0092 50.0692 45.5279 50.0659 46.1378V51H48.2662V46.4162C48.2662 45.9058 48.1336 45.5064 47.8684 45.218C47.6066 44.9297 47.2437 44.7855 46.7797 44.7855C46.4648 44.7855 46.1847 44.8551 45.9395 44.9943C45.6975 45.1302 45.5069 45.3274 45.3677 45.5859C45.2318 45.8445 45.1639 46.1577 45.1639 46.5256ZM55.7086 43.3636V44.7557H51.3187V43.3636H55.7086ZM52.4025 41.5341H54.2022V48.7031C54.2022 48.9451 54.2387 49.1307 54.3116 49.2599C54.3878 49.3859 54.4873 49.4721 54.6099 49.5185C54.7325 49.5649 54.8684 49.5881 55.0176 49.5881C55.1303 49.5881 55.233 49.5798 55.3258 49.5632C55.4219 49.5466 55.4949 49.5317 55.5446 49.5185L55.8478 50.9254C55.7517 50.9586 55.6142 50.995 55.4352 51.0348C55.2595 51.0746 55.0441 51.0978 54.7889 51.1044C54.3381 51.1177 53.9321 51.0497 53.5708 50.9006C53.2096 50.7481 52.9229 50.5128 52.7108 50.1946C52.502 49.8764 52.3992 49.4787 52.4025 49.0014V41.5341ZM60.766 40.8182H63.0231L66.0458 48.196H66.1651L69.1879 40.8182H71.445V51H69.6751V44.005H69.5806L66.7667 50.9702H65.4442L62.6303 43.9901H62.5359V51H60.766V40.8182ZM74.4925 53.8636C74.2473 53.8636 74.0202 53.8438 73.8114 53.804C73.6059 53.7675 73.4419 53.7244 73.3192 53.6747L73.7369 52.2727C73.9987 52.349 74.2324 52.3854 74.4379 52.3821C74.6433 52.3788 74.824 52.3142 74.9798 52.1882C75.1388 52.0656 75.2731 51.8601 75.3825 51.5717L75.5366 51.1591L72.7674 43.3636H74.6765L76.4364 49.1307H76.516L78.2809 43.3636H80.195L77.1374 51.9247C76.9949 52.3291 76.806 52.6754 76.5707 52.9638C76.3353 53.2554 76.047 53.4775 75.7056 53.63C75.3675 53.7857 74.9632 53.8636 74.4925 53.8636ZM87.1353 51L84.2617 40.8182H86.2454L88.0799 48.3004H88.1744L90.1332 40.8182H91.9379L93.9016 48.3054H93.9911L95.8256 40.8182H97.8093L94.9357 51H93.1161L91.0778 43.8558H90.9982L88.9549 51H87.1353ZM101.56 51.1491C100.815 51.1491 100.168 50.9851 99.6214 50.657C99.0746 50.3288 98.6503 49.8698 98.3487 49.2798C98.0504 48.6899 97.9013 48.0005 97.9013 47.2116C97.9013 46.4228 98.0504 45.7318 98.3487 45.1385C98.6503 44.5452 99.0746 44.0845 99.6214 43.7564C100.168 43.4283 100.815 43.2642 101.56 43.2642C102.306 43.2642 102.952 43.4283 103.499 43.7564C104.046 44.0845 104.469 44.5452 104.767 45.1385C105.069 45.7318 105.219 46.4228 105.219 47.2116C105.219 48.0005 105.069 48.6899 104.767 49.2798C104.469 49.8698 104.046 50.3288 103.499 50.657C102.952 50.9851 102.306 51.1491 101.56 51.1491ZM101.57 49.7074C101.975 49.7074 102.313 49.5964 102.585 49.3743C102.856 49.1489 103.058 48.8473 103.191 48.4695C103.327 48.0916 103.395 47.6707 103.395 47.2067C103.395 46.7393 103.327 46.3168 103.191 45.9389C103.058 45.5578 102.856 45.2545 102.585 45.0291C102.313 44.8037 101.975 44.6911 101.57 44.6911C101.156 44.6911 100.811 44.8037 100.536 45.0291C100.264 45.2545 100.061 45.5578 99.9247 45.9389C99.7921 46.3168 99.7259 46.7393 99.7259 47.2067C99.7259 47.6707 99.7921 48.0916 99.9247 48.4695C100.061 48.8473 100.264 49.1489 100.536 49.3743C100.811 49.5964 101.156 49.7074 101.57 49.7074ZM106.747 51V43.3636H108.492V44.6364H108.572C108.711 44.1955 108.949 43.8558 109.287 43.6172C109.629 43.3752 110.018 43.2543 110.456 43.2543C110.555 43.2543 110.666 43.2592 110.789 43.2692C110.915 43.2758 111.019 43.2874 111.102 43.304V44.9595C111.026 44.933 110.905 44.9098 110.739 44.8899C110.577 44.8667 110.419 44.8551 110.267 44.8551C109.939 44.8551 109.644 44.9264 109.382 45.0689C109.123 45.2081 108.92 45.402 108.77 45.6506C108.621 45.8991 108.547 46.1858 108.547 46.5107V51H106.747ZM114.817 51.1342C114.217 51.1342 113.68 50.9801 113.206 50.6719C112.732 50.3636 112.358 49.9162 112.083 49.3295C111.808 48.7429 111.67 48.0303 111.67 47.1918C111.67 46.3433 111.809 45.6274 112.088 45.044C112.369 44.4574 112.749 44.0149 113.226 43.7166C113.703 43.415 114.235 43.2642 114.822 43.2642C115.27 43.2642 115.637 43.3404 115.926 43.4929C116.214 43.642 116.443 43.8227 116.612 44.0348C116.781 44.2436 116.912 44.4408 117.005 44.6264H117.079V40.8182H118.884V51H117.114V49.7969H117.005C116.912 49.9825 116.778 50.1797 116.602 50.3885C116.426 50.594 116.194 50.7696 115.906 50.9155C115.618 51.0613 115.255 51.1342 114.817 51.1342ZM115.319 49.6577C115.7 49.6577 116.025 49.5549 116.294 49.3494C116.562 49.1406 116.766 48.8506 116.905 48.4794C117.044 48.1082 117.114 47.6757 117.114 47.1818C117.114 46.688 117.044 46.2588 116.905 45.8942C116.769 45.5296 116.567 45.2462 116.299 45.044C116.033 44.8419 115.707 44.7408 115.319 44.7408C114.918 44.7408 114.583 44.8452 114.315 45.054C114.047 45.2628 113.844 45.5511 113.708 45.919C113.573 46.2869 113.505 46.7079 113.505 47.1818C113.505 47.6591 113.573 48.085 113.708 48.4595C113.848 48.8307 114.051 49.1241 114.32 49.3395C114.592 49.5516 114.925 49.6577 115.319 49.6577Z" fill="black" style="fill:black;fill-opacity:1;"/>
</svg>
